<svg  viewBox="0 0 33 30" fill="none" xmlns="http://www.w3.org/2000/svg">
<path d="M16.5 29.3132C15.3333 28.3896 14.0694 27.6726 12.7083 27.1622C11.3472 26.6518 9.9375 26.3966 8.47917 26.3966C7.45834 26.3966 6.45573 26.5302 5.47136 26.7976C4.48698 27.065 3.54514 27.4417 2.64584 27.9278C2.13542 28.1952 1.64323 28.183 1.16927 27.8914C0.695315 27.5997 0.458336 27.1743 0.458336 26.6153V9.0424C0.458336 8.77504 0.525176 8.51983 0.658857 8.27677C0.792537 8.03372 0.993058 7.85143 1.26042 7.7299C2.37847 7.14657 3.54514 6.70907 4.76042 6.4174C5.9757 6.12573 7.21528 5.9799 8.47917 5.9799C9.88889 5.9799 11.2682 6.16219 12.6172 6.52677C13.9661 6.89136 15.2604 7.43823 16.5 8.1674V25.8132C17.7396 25.0355 19.0399 24.4521 20.401 24.0632C21.7622 23.6743 23.1354 23.4799 24.5208 23.4799C25.3958 23.4799 26.2526 23.5528 27.0911 23.6987C27.9297 23.8445 28.7743 24.0632 29.625 24.3549V6.8549C29.9896 6.97643 30.3481 7.10403 30.7005 7.23771C31.053 7.37139 31.3993 7.53546 31.7396 7.7299C32.0069 7.85143 32.2075 8.03372 32.3411 8.27677C32.4748 8.51983 32.5417 8.77504 32.5417 9.0424V26.6153C32.5417 27.1743 32.3047 27.5997 31.8307 27.8914C31.3568 28.183 30.8646 28.1952 30.3542 27.9278C29.4549 27.4417 28.513 27.065 27.5286 26.7976C26.5443 26.5302 25.5417 26.3966 24.5208 26.3966C23.0625 26.3966 21.6528 26.6518 20.2917 27.1622C18.9306 27.6726 17.6667 28.3896 16.5 29.3132ZM19.4167 22.0216V8.1674L26.7083 0.875732V15.4591L19.4167 22.0216Z" fill="#4782A9"/>
</svg>
