<svg  viewBox="0 0 35 35" fill="none" xmlns="http://www.w3.org/2000/svg">
<mask id="mask0_883_4009" style="mask-type:alpha" maskUnits="userSpaceOnUse" x="0" y="0" width="35" height="35">
<rect x="0.5" y="0.5" width="34" height="34" fill="#D9D9D9" stroke="url(#paint0_linear_883_4009)"/>
</mask>
<g mask="url(#mask0_883_4009)">
<path d="M9.47882 6.33374C10.8449 6.33374 12.1806 6.51006 13.4866 6.86304C14.7028 7.19172 15.8732 7.67551 17.0003 8.31226V26.571L17.7659 26.0906C18.967 25.337 20.2241 24.7727 21.5384 24.3972C22.8558 24.0208 24.1829 23.8337 25.5208 23.8337C26.3678 23.8337 27.1958 23.9039 28.0052 24.0447C28.8163 24.1857 29.636 24.3978 30.4632 24.6814L31.1253 24.908V7.41187C31.2586 7.46005 31.3912 7.50846 31.5228 7.55835C31.8498 7.6824 32.173 7.83535 32.4915 8.01733L32.512 8.02905L32.5325 8.03882C32.7077 8.11844 32.8241 8.22824 32.9026 8.37085C32.9973 8.54296 33.0413 8.71635 33.0413 8.89624V26.4685C33.0413 26.8549 32.8939 27.1189 32.5687 27.3191C32.291 27.49 32.0234 27.5216 31.7191 27.4001L31.5862 27.3386C30.6549 26.8357 29.679 26.4456 28.6595 26.1687C27.6324 25.8898 26.5858 25.7498 25.5208 25.7498C24.0029 25.7498 22.5338 26.0162 21.1165 26.5476C19.8252 27.0319 18.6195 27.6966 17.4993 28.5378C16.3795 27.6969 15.1751 27.0317 13.8841 26.5476C12.4667 26.0161 10.9969 25.7498 9.47882 25.7498C8.41387 25.7498 7.36717 25.8898 6.34015 26.1687C5.44631 26.4115 4.58621 26.7414 3.76007 27.158L3.41339 27.3386C3.05256 27.5275 2.74825 27.5143 2.43097 27.3191C2.10586 27.1189 1.95831 26.8548 1.95831 26.4685V8.89624C1.95831 8.71636 2.00232 8.54296 2.09698 8.37085C2.17551 8.22823 2.29201 8.11846 2.4671 8.03882L2.4798 8.03296L2.49152 8.0271C3.5736 7.46253 4.70215 7.03959 5.87726 6.75757C7.05376 6.47521 8.25392 6.33377 9.47882 6.33374ZM27.2083 15.0896L20.9163 20.7527V8.22827L27.2083 1.93628V15.0896ZM15.0833 9.47632L14.7786 9.34741C13.9465 8.99441 13.0827 8.7228 12.1888 8.53394C11.2924 8.3446 10.3886 8.24976 9.47882 8.24976C8.54791 8.24978 7.6402 8.33857 6.75616 8.51538C5.87211 8.69219 5.01313 8.95688 4.17999 9.3103L3.87531 9.44019V24.9636L4.54913 24.7136C5.373 24.4076 6.18799 24.1849 6.99445 24.0447C7.80381 23.9039 8.63185 23.8338 9.47882 23.8337C10.3259 23.8337 11.1547 23.9039 11.9642 24.0447C12.7705 24.1849 13.5857 24.4077 14.4095 24.7136L15.0833 24.9636V9.47632Z" fill="url(#paint1_linear_883_4009)" stroke="url(#paint2_linear_883_4009)"/>
</g>
<defs>
<linearGradient id="paint0_linear_883_4009" x1="17.5" y1="0" x2="17.5" y2="35" gradientUnits="userSpaceOnUse">
<stop stop-color="#325C77"/>
<stop offset="1" stop-color="#5DABDD"/>
</linearGradient>
<linearGradient id="paint1_linear_883_4009" x1="17.5" y1="0.729248" x2="17.5" y2="29.1667" gradientUnits="userSpaceOnUse">
<stop stop-color="#325C77"/>
<stop offset="1" stop-color="#5DABDD"/>
</linearGradient>
<linearGradient id="paint2_linear_883_4009" x1="17.5" y1="0.729248" x2="17.5" y2="29.1667" gradientUnits="userSpaceOnUse">
<stop stop-color="#325C77"/>
<stop offset="1" stop-color="#5DABDD"/>
</linearGradient>
</defs>
</svg>
