<svg  viewBox="0 0 35 35" fill="none" xmlns="http://www.w3.org/2000/svg">
<mask id="mask0_883_4012" style="mask-type:alpha" maskUnits="userSpaceOnUse" x="0" y="0" width="35" height="35">
<rect x="0.5" y="0.5" width="34" height="34" fill="#D9D9D9" stroke="url(#paint0_linear_883_4012)"/>
</mask>
<g mask="url(#mask0_883_4012)">
<path d="M11.167 3.41675V6.33374H23.833V3.41675H25.75V6.33374H27.708C28.3764 6.33374 28.9369 6.56554 29.415 7.0437C29.893 7.52175 30.1249 8.08155 30.125 8.74976V29.1667C30.125 29.835 29.893 30.3947 29.415 30.8728C28.9369 31.351 28.3764 31.5837 27.708 31.5837H7.29199C6.62357 31.5837 6.06312 31.351 5.58496 30.8728C5.10702 30.3947 4.875 29.835 4.875 29.1667V8.74976C4.87508 8.08155 5.10699 7.52175 5.58496 7.0437C6.06312 6.56554 6.62357 6.33374 7.29199 6.33374H9.25V3.41675H11.167ZM6.79199 29.6667H28.208V14.0837H6.79199V29.6667ZM11.667 23.8337C11.9541 23.8338 12.1715 23.9252 12.3525 24.1062C12.5335 24.2873 12.625 24.5046 12.625 24.7917C12.625 25.0789 12.5335 25.2962 12.3525 25.4773C12.1715 25.6583 11.9541 25.7497 11.667 25.7498C11.3798 25.7498 11.1625 25.6583 10.9814 25.4773C10.8003 25.2962 10.708 25.079 10.708 24.7917C10.708 24.5045 10.8003 24.2873 10.9814 24.1062C11.1625 23.9252 11.3798 23.8337 11.667 23.8337ZM17.5 23.8337C17.7873 23.8337 18.0044 23.9251 18.1855 24.1062C18.3667 24.2873 18.458 24.5045 18.458 24.7917C18.458 25.079 18.3667 25.2962 18.1855 25.4773C18.0044 25.6584 17.7873 25.7498 17.5 25.7498C17.2127 25.7498 16.9956 25.6584 16.8145 25.4773C16.6333 25.2962 16.542 25.079 16.542 24.7917C16.542 24.5045 16.6333 24.2873 16.8145 24.1062C16.9956 23.9251 17.2127 23.8337 17.5 23.8337ZM23.333 23.8337C23.6202 23.8337 23.8375 23.9252 24.0186 24.1062C24.1997 24.2873 24.292 24.5045 24.292 24.7917C24.292 25.079 24.1997 25.2962 24.0186 25.4773C23.8375 25.6583 23.6202 25.7498 23.333 25.7498C23.0459 25.7497 22.8285 25.6583 22.6475 25.4773C22.4665 25.2962 22.375 25.0789 22.375 24.7917C22.375 24.5046 22.4665 24.2873 22.6475 24.1062C22.8285 23.9252 23.0459 23.8338 23.333 23.8337ZM11.667 17.9998C11.9541 17.9998 12.1715 18.0921 12.3525 18.2732C12.5334 18.4542 12.625 18.6716 12.625 18.9587C12.6249 19.2459 12.5336 19.4632 12.3525 19.6443C12.1715 19.8253 11.9541 19.9167 11.667 19.9167C11.3799 19.9167 11.1625 19.8252 10.9814 19.6443C10.8004 19.4632 10.7081 19.2459 10.708 18.9587C10.708 18.6715 10.8003 18.4543 10.9814 18.2732C11.1626 18.0921 11.3797 17.9998 11.667 17.9998ZM17.5 17.9998C17.7873 17.9998 18.0044 18.0921 18.1855 18.2732C18.3666 18.4543 18.458 18.6715 18.458 18.9587C18.4579 19.2459 18.3666 19.4632 18.1855 19.6443C18.0045 19.8253 17.7872 19.9167 17.5 19.9167C17.2128 19.9167 16.9955 19.8253 16.8145 19.6443C16.6334 19.4632 16.5421 19.2459 16.542 18.9587C16.542 18.6715 16.6334 18.4543 16.8145 18.2732C16.9956 18.0921 17.2127 17.9998 17.5 17.9998ZM23.333 17.9998C23.6203 17.9998 23.8374 18.0921 24.0186 18.2732C24.1997 18.4543 24.292 18.6715 24.292 18.9587C24.2919 19.2459 24.1996 19.4632 24.0186 19.6443C23.8375 19.8252 23.6201 19.9167 23.333 19.9167C23.0459 19.9167 22.8285 19.8253 22.6475 19.6443C22.4664 19.4632 22.3751 19.2459 22.375 18.9587C22.375 18.6716 22.4666 18.4542 22.6475 18.2732C22.8285 18.0921 23.0459 17.9998 23.333 17.9998ZM6.79199 12.1667H28.208V8.24976H6.79199V12.1667Z" fill="url(#paint1_linear_883_4012)" stroke="url(#paint2_linear_883_4012)"/>
</g>
<defs>
<linearGradient id="paint0_linear_883_4012" x1="17.5" y1="0" x2="17.5" y2="35" gradientUnits="userSpaceOnUse">
<stop stop-color="#325C77"/>
<stop offset="1" stop-color="#5DABDD"/>
</linearGradient>
<linearGradient id="paint1_linear_883_4012" x1="17.5" y1="2.91675" x2="17.5" y2="32.0834" gradientUnits="userSpaceOnUse">
<stop stop-color="#325C77"/>
<stop offset="1" stop-color="#5DABDD"/>
</linearGradient>
<linearGradient id="paint2_linear_883_4012" x1="17.5" y1="2.91675" x2="17.5" y2="32.0834" gradientUnits="userSpaceOnUse">
<stop stop-color="#325C77"/>
<stop offset="1" stop-color="#5DABDD"/>
</linearGradient>
</defs>
</svg>
