<svg viewBox="5 2 25 30" fill="none" xmlns="http://www.w3.org/2000/svg">
<mask id="mask0_1221_3487" style="mask-type:alpha" maskUnits="userSpaceOnUse" x="0" y="0" width="35" height="43">
<rect y="0.380981" width="35" height="41.6667" fill="#D9D9D9"/>
</mask>
<g mask="url(#mask0_1221_3487)" transform="translate(0, -10)">
<path d="M17.5 28.4169C17.0868 28.4169 16.7405 28.2771 16.4609 27.9976C16.1814 27.7181 16.0417 27.3717 16.0417 26.9585C16.0417 26.5453 16.1814 26.199 16.4609 25.9195C16.7405 25.64 17.0868 25.5002 17.5 25.5002C17.9132 25.5002 18.2596 25.64 18.5391 25.9195C18.8186 26.199 18.9583 26.5453 18.9583 26.9585C18.9583 27.3717 18.8186 27.7181 18.5391 27.9976C18.2596 28.2771 17.9132 28.4169 17.5 28.4169ZM11.6667 28.4169C11.2535 28.4169 10.9071 28.2771 10.6276 27.9976C10.3481 27.7181 10.2083 27.3717 10.2083 26.9585C10.2083 26.5453 10.3481 26.199 10.6276 25.9195C10.9071 25.64 11.2535 25.5002 11.6667 25.5002C12.0799 25.5002 12.4262 25.64 12.7057 25.9195C12.9852 26.199 13.125 26.5453 13.125 26.9585C13.125 27.3717 12.9852 27.7181 12.7057 27.9976C12.4262 28.2771 12.0799 28.4169 11.6667 28.4169ZM23.3333 28.4169C22.9201 28.4169 22.5738 28.2771 22.2943 27.9976C22.0148 27.7181 21.875 27.3717 21.875 26.9585C21.875 26.5453 22.0148 26.199 22.2943 25.9195C22.5738 25.64 22.9201 25.5002 23.3333 25.5002C23.7465 25.5002 24.0929 25.64 24.3724 25.9195C24.6519 26.199 24.7917 26.5453 24.7917 26.9585C24.7917 27.3717 24.6519 27.7181 24.3724 27.9976C24.0929 28.2771 23.7465 28.4169 23.3333 28.4169ZM17.5 34.2502C17.0868 34.2502 16.7405 34.1104 16.4609 33.8309C16.1814 33.5514 16.0417 33.2051 16.0417 32.7919C16.0417 32.3787 16.1814 32.0323 16.4609 31.7528C16.7405 31.4733 17.0868 31.3335 17.5 31.3335C17.9132 31.3335 18.2596 31.4733 18.5391 31.7528C18.8186 32.0323 18.9583 32.3787 18.9583 32.7919C18.9583 33.2051 18.8186 33.5514 18.5391 33.8309C18.2596 34.1104 17.9132 34.2502 17.5 34.2502ZM11.6667 34.2502C11.2535 34.2502 10.9071 34.1104 10.6276 33.8309C10.3481 33.5514 10.2083 33.2051 10.2083 32.7919C10.2083 32.3787 10.3481 32.0323 10.6276 31.7528C10.9071 31.4733 11.2535 31.3335 11.6667 31.3335C12.0799 31.3335 12.4262 31.4733 12.7057 31.7528C12.9852 32.0323 13.125 32.3787 13.125 32.7919C13.125 33.2051 12.9852 33.5514 12.7057 33.8309C12.4262 34.1104 12.0799 34.2502 11.6667 34.2502ZM23.3333 34.2502C22.9201 34.2502 22.5738 34.1104 22.2943 33.8309C22.0148 33.5514 21.875 33.2051 21.875 32.7919C21.875 32.3787 22.0148 32.0323 22.2943 31.7528C22.5738 31.4733 22.9201 31.3335 23.3333 31.3335C23.7465 31.3335 24.0929 31.4733 24.3724 31.7528C24.6519 32.0323 24.7917 32.3787 24.7917 32.7919C24.7917 33.2051 24.6519 33.5514 24.3724 33.8309C24.0929 34.1104 23.7465 34.2502 23.3333 34.2502ZM7.29167 40.0835C6.48958 40.0835 5.80295 39.7979 5.23177 39.2268C4.66059 38.6556 4.375 37.969 4.375 37.1669V16.7502C4.375 15.9481 4.66059 15.2615 5.23177 14.6903C5.80295 14.1191 6.48958 13.8335 7.29167 13.8335H8.75V10.9169H11.6667V13.8335H23.3333V10.9169H26.25V13.8335H27.7083C28.5104 13.8335 29.1971 14.1191 29.7682 14.6903C30.3394 15.2615 30.625 15.9481 30.625 16.7502V37.1669C30.625 37.969 30.3394 38.6556 29.7682 39.2268C29.1971 39.7979 28.5104 40.0835 27.7083 40.0835H7.29167ZM7.29167 37.1669H27.7083V22.5835H7.29167V37.1669Z" fill="#4782A9"/>
</g>
</svg>
