<svg width="44" height="43" viewBox="0 0 44 43" fill="none" xmlns="http://www.w3.org/2000/svg">
<circle cx="22" cy="21.5" r="21.5" fill="#325C77"/>
<mask id="mask0_571_3357" style="mask-type:alpha" maskUnits="userSpaceOnUse" x="4" y="3" width="35" height="34">
<rect x="4.5" y="3" width="34" height="34" fill="white"/>
</mask>
<g mask="url(#mask0_571_3357)">
<path d="M21.5 20C19.9417 20 18.6077 19.4451 17.4979 18.3354C16.3882 17.2257 15.8334 15.8917 15.8334 14.3333C15.8334 12.775 16.3882 11.441 17.4979 10.3313C18.6077 9.22153 19.9417 8.66667 21.5 8.66667C23.0584 8.66667 24.3924 9.22153 25.5021 10.3313C26.6118 11.441 27.1667 12.775 27.1667 14.3333C27.1667 15.8917 26.6118 17.2257 25.5021 18.3354C24.3924 19.4451 23.0584 20 21.5 20ZM10.1667 31.3333V27.3667C10.1667 26.5639 10.3733 25.826 10.7865 25.1531C11.1997 24.4802 11.7486 23.9667 12.4334 23.6125C13.8972 22.8806 15.3847 22.3316 16.8959 21.9656C18.407 21.5997 19.9417 21.4167 21.5 21.4167C23.0584 21.4167 24.5931 21.5997 26.1042 21.9656C27.6153 22.3316 29.1028 22.8806 30.5667 23.6125C31.2514 23.9667 31.8004 24.4802 32.2136 25.1531C32.6268 25.826 32.8334 26.5639 32.8334 27.3667V31.3333H10.1667Z" fill="white"/>
</g>
</svg>
