<svg width="41" height="41" viewBox="0 0 41 41" fill="none" xmlns="http://www.w3.org/2000/svg">
<mask id="mask0_883_4060" style="mask-type:alpha" maskUnits="userSpaceOnUse" x="0" y="0" width="41" height="41">
<rect width="40.392" height="40.392" fill="#D9D9D9"/>
</mask>
<g mask="url(#mask0_883_4060)">
<path d="M30.2938 28.6108V23.5618H25.2448V20.1958H30.2938V15.1468H33.6598V20.1958H38.7088V23.5618H33.6598V28.6108H30.2938ZM18.5128 35.3428L13.1693 30.5463C11.1497 28.723 9.41764 27.0961 7.97307 25.6656C6.52849 24.235 5.33637 22.8886 4.3967 21.6264C3.45702 20.3641 2.7698 19.1439 2.33502 17.9658C1.90025 16.7877 1.68286 15.5535 1.68286 14.2632C1.68286 11.6265 2.56644 9.43164 4.33358 7.67851C6.10073 5.92539 8.30266 5.04883 10.9394 5.04883C12.398 5.04883 13.7864 5.35037 15.1048 5.95344C16.4231 6.55651 17.5591 7.41905 18.5128 8.54105C19.4665 7.41905 20.6026 6.55651 21.9209 5.95344C23.2393 5.35037 24.6277 5.04883 26.0863 5.04883C28.4706 5.04883 30.4691 5.77112 32.082 7.21569C33.6949 8.66026 34.6977 10.3503 35.0904 12.2857C34.5855 12.0894 34.0806 11.9421 33.5757 11.8439C33.0708 11.7458 32.5799 11.6967 32.1031 11.6967C29.27 11.6967 26.8577 12.6854 24.8662 14.663C22.8746 16.6405 21.8788 19.0458 21.8788 21.8788C21.8788 23.3374 22.1734 24.7189 22.7624 26.0232C23.3515 27.3275 24.1789 28.4425 25.2448 29.3682C24.7119 29.845 24.0177 30.4551 23.1621 31.1984C22.3066 31.9417 21.5703 32.5939 20.9532 33.1549L18.5128 35.3428Z" fill="url(#paint0_linear_883_4060)"/>
</g>
<defs>
<linearGradient id="paint0_linear_883_4060" x1="20.1958" y1="5.04883" x2="20.1958" y2="35.3428" gradientUnits="userSpaceOnUse">
<stop stop-color="#5DABDD"/>
<stop offset="1" stop-color="#325C77"/>
</linearGradient>
</defs>
</svg>
