<svg width="44" height="43" viewBox="0 0 44 43" fill="none" xmlns="http://www.w3.org/2000/svg">
<mask id="mask0_571_3352" style="mask-type:alpha" maskUnits="userSpaceOnUse" x="7" y="8" width="32" height="31">
<rect x="7.5" y="8" width="31" height="31" fill="#D9D9D9"/>
</mask>
<g mask="url(#mask0_571_3352)">
<path d="M30.75 29.9583V26.0833H26.875V23.5H30.75V19.625H33.3333V23.5H37.2083V26.0833H33.3333V29.9583H30.75ZM21.7083 35.125L17.6073 31.4438C16.0573 30.0444 14.7279 28.7958 13.6192 27.6979C12.5105 26.6 11.5956 25.5667 10.8744 24.5979C10.1533 23.6292 9.62583 22.6927 9.29215 21.7885C8.95847 20.8844 8.79163 19.9372 8.79163 18.9469C8.79163 16.9233 9.46975 15.2387 10.826 13.8932C12.1823 12.5477 13.8722 11.875 15.8958 11.875C17.0152 11.875 18.0809 12.1064 19.0927 12.5693C20.1045 13.0321 20.9763 13.6941 21.7083 14.5552C22.4402 13.6941 23.3121 13.0321 24.3239 12.5693C25.3357 12.1064 26.4013 11.875 27.5208 11.875C29.3507 11.875 30.8845 12.4293 32.1224 13.538C33.3602 14.6467 34.1298 15.9438 34.4312 17.4292C34.0437 17.2785 33.6562 17.1655 33.2687 17.0901C32.8812 17.0148 32.5045 16.9771 32.1385 16.9771C29.9642 16.9771 28.1128 17.7359 26.5843 19.2536C25.0559 20.7714 24.2916 22.6174 24.2916 24.7917C24.2916 25.9111 24.5177 26.9714 24.9698 27.9724C25.4218 28.9734 26.0569 29.8292 26.875 30.5396C26.4659 30.9056 25.9331 31.3738 25.2765 31.9443C24.6199 32.5148 24.0548 33.0153 23.5812 33.4458L21.7083 35.125Z" fill="white"/>
</g>
</svg>
