<svg width="43" height="43" viewBox="0 0 43 43" fill="none" xmlns="http://www.w3.org/2000/svg">
<mask id="mask0_883_4057" style="mask-type:alpha" maskUnits="userSpaceOnUse" x="0" y="0" width="43" height="43">
<rect width="43" height="43" fill="#D9D9D9"/>
</mask>
<g mask="url(#mask0_883_4057)">
<path d="M21.5 21.5001C19.5291 21.5001 17.842 20.7983 16.4385 19.3949C15.035 17.9914 14.3333 16.3042 14.3333 14.3334C14.3333 12.3626 15.035 10.6754 16.4385 9.27196C17.842 7.86848 19.5291 7.16675 21.5 7.16675C23.4708 7.16675 25.1579 7.86848 26.5614 9.27196C27.9649 10.6754 28.6666 12.3626 28.6666 14.3334C28.6666 16.3042 27.9649 17.9914 26.5614 19.3949C25.1579 20.7983 23.4708 21.5001 21.5 21.5001ZM7.16663 35.8334V30.8167C7.16663 29.8015 7.42791 28.8683 7.95048 28.0173C8.47305 27.1662 9.16732 26.5167 10.0333 26.0688C11.8847 25.1431 13.7659 24.4489 15.677 23.986C17.5882 23.5232 19.5291 23.2917 21.5 23.2917C23.4708 23.2917 25.4118 23.5232 27.3229 23.986C29.234 24.4489 31.1152 25.1431 32.9666 26.0688C33.8326 26.5167 34.5269 27.1662 35.0494 28.0173C35.572 28.8683 35.8333 29.8015 35.8333 30.8167V35.8334H7.16663ZM10.75 32.2501H32.25V30.8167C32.25 30.4883 32.1678 30.1897 32.0036 29.9209C31.8394 29.6522 31.6229 29.4431 31.3541 29.2938C29.7416 28.4876 28.1142 27.8829 26.4718 27.4798C24.8295 27.0766 23.1722 26.8751 21.5 26.8751C19.8277 26.8751 18.1704 27.0766 16.5281 27.4798C14.8857 27.8829 13.2583 28.4876 11.6458 29.2938C11.377 29.4431 11.1605 29.6522 10.9963 29.9209C10.8321 30.1897 10.75 30.4883 10.75 30.8167V32.2501ZM21.5 17.9167C22.4854 17.9167 23.329 17.5659 24.0307 16.8641C24.7324 16.1624 25.0833 15.3188 25.0833 14.3334C25.0833 13.348 24.7324 12.5044 24.0307 11.8027C23.329 11.1009 22.4854 10.7501 21.5 10.7501C20.5145 10.7501 19.671 11.1009 18.9692 11.8027C18.2675 12.5044 17.9166 13.348 17.9166 14.3334C17.9166 15.3188 18.2675 16.1624 18.9692 16.8641C19.671 17.5659 20.5145 17.9167 21.5 17.9167Z" fill="url(#paint0_linear_883_4057)"/>
</g>
<defs>
<linearGradient id="paint0_linear_883_4057" x1="21.5" y1="7.16675" x2="21.5" y2="35.8334" gradientUnits="userSpaceOnUse">
<stop stop-color="#325C77"/>
<stop offset="1" stop-color="#5DABDD"/>
</linearGradient>
</defs>
</svg>
