<svg width="96" height="32" viewBox="0 0 96 32" fill="none" xmlns="http://www.w3.org/2000/svg">
<path d="M24.7766 10.1081H27.0668V30.7167H24.7766V10.1081ZM25.632 10.1081H36.6V10.4315H25.632V10.1081ZM25.632 17.9905H35.2135V18.3138H25.632V17.9905ZM25.632 30.4001H36.8759V30.7234H25.632V30.4001Z" fill="#595959"/>
<path d="M40.3269 10.1081H46.073C49.4117 10.1081 52.1503 11.4286 52.1779 14.5344C52.2055 18.0174 49.6945 19.7151 43.3138 19.7151H42.6792L42.624 30.7234H40.3338V10.1081H40.3269ZM43.369 19.3918C48.4253 19.3918 50.0808 17.5593 50.0532 14.5344C50.0257 11.8665 48.646 10.4315 45.5488 10.4315H42.624L42.6792 19.385H43.369V19.3918ZM49.667 23.434C48.3977 20.9817 48.0666 19.7084 45.2729 19.7084H43.2862V19.385H45.466C50.2464 19.385 50.7707 20.948 51.9295 23.1914L55.8822 30.7167H53.454L49.667 23.434Z" fill="#595959"/>
<path d="M58.1223 10.1081H60.4124V30.7167H58.1223V10.1081ZM58.9776 10.1081H69.9456V10.4315H58.9776V10.1081ZM58.9776 17.9905H68.5591V18.3138H58.9776V17.9905ZM58.9776 30.4001H70.2216V30.7234H58.9776V30.4001Z" fill="#595959"/>
<path d="M73.6727 10.1081H75.9629V30.7167H73.6727V10.1081Z" fill="#595959"/>
<path d="M79.1481 10.1081H81.9074L94.7793 27.7255L95 30.7167H94.3102L79.1481 10.1081ZM80.0035 10.1081H80.3346V30.7167H80.0035V10.1081ZM94.6689 10.1081H95V30.7167H94.6689V10.1081Z" fill="#595959"/>
<path d="M1 22.0869H1.47597C1.47597 26.9847 5.14577 30.4947 10.7953 30.5284C15.2929 30.5284 19.4801 28.0627 19.4801 22.7808C19.4801 13.3759 2.86249 18.5028 2.86249 8.28273C2.8487 3.96429 6.484 1 12.0094 1C17.183 1 19.9836 3.97103 19.9836 6.90164H19.5076C19.5076 4.32136 17.0588 1.5457 12.0508 1.46486C7.5877 1.39075 4.42836 3.50618 4.42836 6.51763C4.42836 14.8446 21.1632 10.1017 21.1632 20.7462C21.1632 27.3351 16.4656 31 10.8229 31C4.86294 30.9933 1 27.3687 1 22.0869ZM19.9836 6.8949C19.9836 8.01325 19.6663 8.90254 19.3145 9.4415L18.9213 9.21244C19.28 8.67348 19.5145 7.93914 19.5145 6.90164H19.9905L19.9836 6.8949Z" fill="#595959"/>
<path d="M95 30.7167L94.7793 27.7255L81.9074 10.1081H79.1481L94.3102 30.7167H95ZM95 30.7167V10.1081H94.6689V30.7167H95ZM24.7766 10.1081H27.0668V30.7167H24.7766V10.1081ZM25.632 10.1081H36.6V10.4315H25.632V10.1081ZM25.632 17.9905H35.2135V18.3138H25.632V17.9905ZM25.632 30.4001H36.8759V30.7234H25.632V30.4001ZM40.3269 10.1081H46.073C49.4117 10.1081 52.1503 11.4286 52.1779 14.5344C52.2055 18.0174 49.6945 19.7151 43.3138 19.7151H42.6792L42.624 30.7234H40.3338V10.1081H40.3269ZM43.369 19.3918C48.4253 19.3918 50.0808 17.5593 50.0532 14.5344C50.0257 11.8665 48.646 10.4315 45.5488 10.4315H42.624L42.6792 19.385H43.369V19.3918ZM49.667 23.434C48.3977 20.9817 48.0666 19.7084 45.2728 19.7084H43.2862V19.385H45.466C50.2464 19.385 50.7707 20.948 51.9295 23.1914L55.8822 30.7167H53.454L49.667 23.434ZM58.1223 10.1081H60.4124V30.7167H58.1223V10.1081ZM58.9776 10.1081H69.9456V10.4315H58.9776V10.1081ZM58.9776 17.9905H68.5591V18.3138H58.9776V17.9905ZM58.9776 30.4001H70.2216V30.7234H58.9776V30.4001ZM73.6727 10.1081H75.9629V30.7167H73.6727V10.1081ZM80.0035 10.1081H80.3346V30.7167H80.0035V10.1081ZM1 22.0869H1.47597C1.47597 26.9847 5.14577 30.4947 10.7953 30.5284C15.2929 30.5284 19.4801 28.0627 19.4801 22.7808C19.4801 13.3759 2.86249 18.5028 2.86249 8.28273C2.8487 3.96429 6.484 1 12.0094 1C17.183 1 19.9836 3.97103 19.9836 6.90164H19.5076C19.5076 4.32136 17.0588 1.5457 12.0508 1.46486C7.5877 1.39075 4.42836 3.50618 4.42836 6.51763C4.42836 14.8446 21.1632 10.1017 21.1632 20.7462C21.1632 27.3351 16.4656 31 10.8229 31C4.86294 30.9933 1 27.3687 1 22.0869ZM19.9836 6.8949C19.9836 8.01325 19.6663 8.90254 19.3145 9.4415L18.9213 9.21244C19.28 8.67348 19.5145 7.93914 19.5145 6.90164H19.9905L19.9836 6.8949Z" stroke="#595959" stroke-miterlimit="10"/>
</svg>
